<?xml version="1.0" encoding="UTF-8"?>
<svg class="w-8 h-8 fill-current opacity-50 hover:opacity-80" xmlns="http://www.w3.org/2000/svg" xml:space="preserve" viewBox="0 0 425.28 425.28" style="enable-background:new 0 0 425.28 425.28"><path style="fill:white" d="M212.64 0C95.2 0 0 95.2 0 212.64s95.2 212.64 212.64 212.64 212.64-95.2 212.64-212.64S330.08 0 212.64 0zM384.6 197.35c-22.57-.91-65.28-.93-113.81 7.55a778.14 778.14 0 0 0-13.37-30.2c2.82-1.32 5.6-2.65 8.34-4.03 33.33-16.8 61.01-38.53 82.59-64.76a170.95 170.95 0 0 1 36.25 91.44zM319.96 77.4c-20.14 25.65-46.98 46.24-80.32 61.63a791.26 791.26 0 0 0-11.04-20.1 778.9 778.9 0 0 0-48.97-75.79 174.5 174.5 0 0 1 33-3.14c39.47 0 76.91 13.16 107.33 37.4zM90.56 90.56a172.75 172.75 0 0 1 48.82-34.34c12.57 16.33 33.28 45.13 54.97 83.41 2.48 4.38 5.02 8.97 7.6 13.74a398.88 398.88 0 0 1-53.72 12.42c-42.92 6.99-81.6 6.77-103.33 5.78a171.55 171.55 0 0 1 45.66-81zM40 212.64l.01-1.23a547.5 547.5 0 0 0 113.62-5.98c23.6-3.79 45.84-9.14 66.54-15.99 3.66 7.75 7.3 15.83 10.9 24.22-26.52 7.13-50.86 16.46-72.69 27.89-35.42 18.55-64.28 42.65-86 71.78A171.35 171.35 0 0 1 40 212.63zm59.99 130.83c30.38-44.49 79.35-75.48 145.9-92.39 13.35 36.7 24.77 77.74 31.36 121.74a172.44 172.44 0 0 1-64.61 12.46c-41.8 0-81.33-14.76-112.65-41.8zm234.72-8.76a175.03 175.03 0 0 1-20.3 17.4c-6.82-39.08-17.1-75.73-28.93-109.1a517.88 517.88 0 0 1 98.04-5.64 171.33 171.33 0 0 1-48.8 97.34z"/></svg>