<svg  xmlns="http://www.w3.org/2000/svg" viewBox="0 0 410.15 410.15" style="enable-background:new 0 0 410.155 410.155" xml:space="preserve"><path style="fill:white" d="M403.63 74.18a162.41 162.41 0 0 1-28.28 9.54 88.18 88.18 0 0 0 23.28-37.07 4.62 4.62 0 0 0-6.77-5.38 163.19 163.19 0 0 1-43.23 17.86 11.46 11.46 0 0 1-10.27-2.55 88.42 88.42 0 0 0-58.51-22.09 94.54 94.54 0 0 0-28.02 4.33 85.67 85.67 0 0 0-57.73 61.72 94.33 94.33 0 0 0-2.1 32.56 3.28 3.28 0 0 1-3.55 3.57C125.7 130.84 69.1 100.6 29.1 51.53a4.62 4.62 0 0 0-7.58.6A88.35 88.35 0 0 0 9.54 96.58 88.33 88.33 0 0 0 35.9 159.6a79.24 79.24 0 0 1-20.17-7.8 4.62 4.62 0 0 0-6.87 3.98 88.54 88.54 0 0 0 51.65 81.57 79.17 79.17 0 0 1-16.79-1.4 4.62 4.62 0 0 0-5.27 5.95 88.62 88.62 0 0 0 70 60.28 163.17 163.17 0 0 1-91.39 27.75H6.83a6.77 6.77 0 0 0-6.62 5.1 7 7 0 0 0 3.36 7.74 242.7 242.7 0 0 0 121.95 32.88c37.49 0 72.55-7.43 104.22-22.1A230.14 230.14 0 0 0 306 296.4a250.52 250.52 0 0 0 46.69-78.2c10.38-27.73 15.87-57.33 15.87-85.59v-1.34c0-4.54 2.05-8.8 5.63-11.71a174.78 174.78 0 0 0 35.16-38.6c2.57-3.84-1.48-8.67-5.72-6.79z"/></svg>