<?xml version="1.0" encoding="UTF-8"?>
    <svg enable-background="new 0 0 418.13 418.13" viewBox="0 0 418.13 418.13" xml:space="preserve" xmlns="http://www.w3.org/2000/svg"><path d="M198.93.24C88.5 5.5 1.36 97.47 1.69 208.02c.1 33.67 8.23 65.45 22.57 93.54L2.24 408.43a8.07 8.07 0 0 0 9.77 9.48l104.72-24.8a206.4 206.4 0 0 0 89.11 21.62c112.87 1.73 206.98-87.9 210.5-200.72C420.11 93.07 320.3-5.54 198.93.24zM323.89 322.2a161.31 161.31 0 0 1-114.82 47.56c-25.4 0-49.71-5.7-72.27-16.94l-14.58-7.26L58 360.76l13.51-65.6-7.18-14.07a160.57 160.57 0 0 1-17.65-73.71c0-43.38 16.89-84.15 47.56-114.82A162.67 162.67 0 0 1 209.07 45c43.37 0 84.15 16.89 114.82 47.56a161.32 161.32 0 0 1 47.56 114.81c0 43-17.17 84.43-47.56 114.83z" fill="#fff"/><path d="m309.71 252.35-40.17-11.53a14.97 14.97 0 0 0-14.81 3.9l-9.83 10a14.63 14.63 0 0 1-15.9 3.37c-19-7.7-58.98-43.23-69.19-61.01a14.63 14.63 0 0 1 1.16-16.22l8.58-11.1a14.97 14.97 0 0 0 1.84-15.2l-16.9-38.23a14.98 14.98 0 0 0-23.39-5.35c-11.2 9.48-24.5 23.89-26.13 39.85-2.85 28.15 9.22 63.62 54.87 106.22 52.73 49.22 94.95 55.72 122.44 49.06 15.6-3.78 28.06-18.92 35.93-31.32a14.98 14.98 0 0 0-8.5-22.44z" fill="#fff"/>
</svg>