<svg viewBox="0 0 147 147" fill="rgba(4, 11, 94, 0.4)" xmlns="http://www.w3.org/2000/svg">
<path fill-rule="evenodd" clip-rule="evenodd" d="M134.068 13.5233C117.568 -2.97656 33.5679 -5.97669 14.0681 13.5233C-5.43174 33.0233 -3.93199 115.523 14.0681 133.523C32.0681 151.523 117.568 150.023 134.068 133.523C150.568 117.023 150.568 30.0233 134.068 13.5233ZM73.2328 117.978C64.4855 117.978 60.1118 100.399 60.1118 65.2427C60.1118 59.7181 60.3211 54.8632 60.7396 50.6779C62.0789 38.2057 66.2434 31.9695 73.2328 31.9695C75.7021 31.9695 77.7739 32.6602 79.448 34.0413C84.0518 37.8499 86.3537 48.2504 86.3537 65.2427C86.3537 100.399 81.9801 117.978 73.2328 117.978ZM50.4438 107.933C55.8429 118.815 63.4392 124.256 73.2328 124.256C79.8875 124.256 85.5376 121.724 90.1833 116.659C99.0143 106.991 103.43 91.0661 103.43 68.884C103.43 55.5747 101.128 45.237 96.5241 37.8708C91.3761 29.7513 83.6124 25.6916 73.2328 25.6916C67.7919 25.6916 63.1671 26.7798 59.3585 28.9561C48.4767 35.0667 43.0358 48.376 43.0358 68.884C43.0358 84.9974 45.5051 98.0137 50.4438 107.933Z"/>
</svg>
