<svg viewBox="0 0 147 147" fill="rgba(4, 11, 94, 0.4)" xmlns="http://www.w3.org/2000/svg">
<path fill-rule="evenodd" clip-rule="evenodd" d="M134.068 13.5233C117.568 -2.97656 33.5679 -5.97669 14.0681 13.5233C-5.43174 33.0233 -3.93199 115.523 14.0681 133.523C32.0681 151.523 117.568 150.023 134.068 133.523C150.568 117.023 150.568 30.0233 134.068 13.5233ZM61.2959 45.7183C63.1793 45.7183 65.1673 45.2579 67.26 44.3372C67.6785 52.2055 67.8877 62.9827 67.8877 76.6686C67.8877 100.609 66.9251 115.111 64.9999 120.175L63.8698 123H86.2194C85.2986 121.033 84.5871 119.15 84.0849 117.35C82.7037 112.495 82.0131 99.0601 82.0131 77.0453C82.0131 71.2696 82.0969 64.7823 82.2642 57.5836C82.3061 54.5284 82.3899 51.5777 82.5154 48.7317C82.6409 45.8857 82.7665 42.663 82.892 39.0637C83.0176 35.4643 83.3524 32.3462 83.8966 29.7095L84.5243 26.9472H72.8473C71.8847 29.4165 68.8294 32.9949 63.6815 37.6825C60.8355 40.2355 57.9895 42.098 55.1435 43.2699C55.6876 44.9022 57.7384 45.7183 61.2959 45.7183Z" />
</svg>