<svg viewBox="0 0 147 147" fill="rgba(4, 11, 94, 0.4)" xmlns="http://www.w3.org/2000/svg">
<path fill-rule="evenodd" clip-rule="evenodd" d="M134.068 13.5233C117.568 -2.97656 33.5679 -5.97669 14.0681 13.5233C-5.43174 33.0233 -3.93199 115.523 14.0681 133.523C32.0681 151.523 117.568 150.023 134.068 133.523C150.568 117.023 150.568 30.0233 134.068 13.5233ZM25.2959 44.7183C27.1793 44.7183 29.1673 44.2579 31.26 43.3372C31.6785 51.2055 31.8877 61.9827 31.8877 75.6686C31.8877 99.6086 30.9251 114.111 28.9999 119.175L27.8698 122H50.2194C49.2986 120.033 48.5871 118.15 48.0849 116.35C46.7037 111.495 46.0131 98.0601 46.0131 76.0453C46.0131 70.2696 46.0969 63.7823 46.2642 56.5836C46.3061 53.5284 46.3899 50.5777 46.5154 47.7317C46.6409 44.8857 46.7665 41.663 46.892 38.0637C47.0176 34.4643 47.3524 31.3462 47.8966 28.7095L48.5243 25.9472H36.8473C35.8847 28.4165 32.8294 31.9949 27.6815 36.6825C24.8355 39.2355 21.9895 41.098 19.1435 42.2699C19.6876 43.9022 21.7384 44.7183 25.2959 44.7183ZM99.0619 116.978C90.3146 116.978 85.941 99.3994 85.941 64.2427C85.941 58.7181 86.1502 53.8632 86.5688 49.6779C87.9081 37.2057 92.0724 30.9695 99.0619 30.9695C101.531 30.9695 103.603 31.6602 105.277 33.0413C109.881 36.8499 112.183 47.2504 112.183 64.2427C112.183 99.3994 107.809 116.978 99.0619 116.978ZM76.2729 106.933C81.672 117.815 89.2683 123.256 99.0619 123.256C105.717 123.256 111.367 120.724 116.012 115.659C124.843 105.991 129.259 90.0661 129.259 67.884C129.259 54.5747 126.957 44.237 122.353 36.8708C117.205 28.7513 109.441 24.6916 99.0619 24.6916C93.621 24.6916 88.9962 25.7798 85.1876 27.9561C74.3058 34.0667 68.8649 47.376 68.8649 67.884C68.8649 83.9974 71.3342 97.0137 76.2729 106.933Z" />
</svg>
