<svg viewBox="0 0 147 147" fill="rgba(4, 11, 94, 0.4)" xmlns="http://www.w3.org/2000/svg">
<path fill-rule="evenodd" clip-rule="evenodd" d="M134.068 13.5233C117.568 -2.97658 33.5679 -5.97668 14.0681 13.5233C-5.43174 33.0233 -3.93199 115.523 14.0681 133.523C32.0681 151.523 117.568 150.023 134.068 133.523C150.568 117.023 150.568 30.0232 134.068 13.5233ZM98.9994 42.7677C98.9994 31.3836 92.282 25.6916 78.8472 25.6916C76.043 25.6916 73.1133 25.9009 70.058 26.3194C68.8443 26.4868 67.6933 26.6333 66.6052 26.7588C65.5589 26.8844 64.2614 26.9472 62.7128 26.9472C61.2061 26.9472 59.8877 26.6124 58.7577 25.9427C58.088 25.5242 57.0836 24.3941 55.7443 22.5526C54.9072 22.9293 54.1748 23.6826 53.547 24.8127C51.1195 29.2491 49.9058 36.4688 49.9058 46.4716C49.9058 55.6793 51.538 61.0993 54.8026 62.7316C55.263 58.3788 56.4348 53.9843 58.3183 49.5478C59.2808 47.3715 60.39 45.2998 61.6456 43.3327C62.943 41.3656 64.366 39.6287 65.9146 38.122C67.505 36.6152 69.2 35.4224 70.9997 34.5435C72.8413 33.6646 74.9549 33.2252 77.3405 33.2252C79.7261 33.2252 81.463 33.832 82.5512 35.0458C83.6812 36.2595 84.2462 38.122 84.2462 40.6331C84.2462 45.53 82.4256 52.3311 78.7844 61.0365C77.1102 64.9707 75.1013 69.2606 72.7575 73.9063C70.4556 78.552 63.6545 91.1289 52.3542 111.637C49.5082 116.91 47.8759 120.698 47.4574 123H94.4165C97.9322 123 100.464 121.577 102.013 118.731C102.808 117.224 103.206 114.504 103.206 110.57C103.206 106.677 102.306 103.496 100.506 101.027C98.9994 105.757 95.986 109.565 91.4659 112.453C89.2895 113.792 86.9248 114.839 84.3718 115.592C81.8187 116.345 78.8472 116.722 75.457 116.722C72.067 116.722 69.5139 116.199 67.798 115.153C66.8353 114.567 66.354 113.437 66.354 111.762C66.354 110.005 68.07 106.342 71.502 100.776L82.6767 83.1977C93.5586 65.745 98.9994 52.2683 98.9994 42.7677Z" />
</svg>
