<svg viewBox="0 0 147 147" fill="rgba(4, 11, 94, 0.4)" xmlns="http://www.w3.org/2000/svg">
<path fill-rule="evenodd" clip-rule="evenodd" d="M134.068 13.5233C117.568 -2.97658 33.5679 -5.97668 14.0681 13.5233C-5.43174 33.0233 -3.93199 115.523 14.0681 133.523C32.0681 151.523 117.568 150.023 134.068 133.523C150.568 117.023 150.568 30.0232 134.068 13.5233ZM93.4927 34.6691C92.8649 33.0368 91.8395 31.572 90.4165 30.2745C88.9935 28.9352 87.1311 27.847 84.8291 27.01C82.5272 26.1311 79.6394 25.6916 76.1655 25.6916C72.7336 25.6916 69.6156 25.9009 66.8114 26.3194C64.0072 26.7379 61.6007 26.9472 59.5918 26.9472C57.6247 26.9472 56.0761 26.6124 54.9461 25.9427C54.2764 25.5242 53.2719 24.3941 51.9326 22.5526C50.97 23.013 50.0492 24.3523 49.1703 26.5705C48.7937 27.575 48.4588 28.6632 48.1659 29.835C47.8729 31.0069 47.6008 32.137 47.3497 33.2252C47.1405 34.3133 46.973 35.3178 46.8475 36.2386C46.7638 37.1175 46.7219 38.7079 46.7219 41.0098C46.7219 43.2699 46.994 45.7811 47.538 48.5434C48.124 51.3057 49.2749 53.1054 50.9909 53.9424C52.7069 46.5344 55.1972 41.2191 58.4617 37.9964C60.094 36.3223 61.9983 35.1085 64.1746 34.3552C66.351 33.6018 68.8413 33.2252 71.6454 33.2252C74.4496 33.2252 76.3958 33.7274 77.4839 34.7319C78.614 35.6945 79.179 37.243 79.179 39.3775C79.179 44.2743 76.8561 48.5643 72.2104 52.2474C67.9414 55.5956 63.6096 57.4162 59.215 57.7092C59.215 59.8018 59.9475 61.6852 61.4123 63.3594C68.9459 63.3594 74.1984 65.0753 77.17 68.5073C79.3883 71.0603 80.4973 74.869 80.4973 79.9332C80.4973 86.3786 78.6767 92.5519 75.0355 98.4532C71.3943 104.271 66.7486 108.937 61.0985 112.453C55.0716 116.136 48.8564 117.978 42.4529 117.978C42.5366 119.024 42.9342 120.196 43.6457 121.493C44.3991 122.749 45.5709 123.67 47.1614 124.256C55.0716 124.256 62.94 122.016 70.7665 117.538C74.5333 115.404 78.0698 112.872 81.3762 109.942C84.6826 107.012 87.5496 103.789 89.9771 100.274C92.4464 96.7581 94.3717 93.0123 95.7528 89.0362C97.1758 85.0183 97.8873 81.398 97.8873 78.1753C97.8873 74.9108 97.4897 72.2741 96.6945 70.2651C94.1833 63.9871 88.7424 59.8856 80.3718 57.9603C84.306 55.9932 87.5077 53.5448 89.9771 50.6151C91.3164 49.0665 92.3836 47.3505 93.1789 45.4672C94.0159 43.5838 94.4344 41.7213 94.4344 39.8798C94.4344 37.9964 94.1205 36.2595 93.4927 34.6691Z"/>
</svg>
