<svg viewBox="0 0 147 147" fill="rgba(4, 11, 94, 0.4)" xmlns="http://www.w3.org/2000/svg">
<path fill-rule="evenodd" clip-rule="evenodd" d="M134.068 13.5233C117.568 -2.97658 33.5679 -5.97668 14.0681 13.5233C-5.43174 33.0233 -3.93199 115.523 14.0681 133.523C32.0681 151.523 117.568 150.023 134.068 133.523C150.568 117.023 150.568 30.0232 134.068 13.5233ZM75.8068 62.5611C75.8068 70.3458 75.744 76.3935 75.6184 80.7044H65.3853C62.2882 80.7881 60.0072 80.4742 58.5424 79.7627C57.0775 79.0512 56.4916 77.7119 56.7846 75.7448C57.1193 73.7777 57.9355 70.2412 59.2329 65.1351L67.0176 35.3775C67.7291 32.7827 68.4406 30.4389 69.1521 28.3462L70.0938 25.6467C70.3868 24.8096 70.6798 23.9098 70.9727 22.9472H50.8205C51.0716 23.1983 51.1972 25.4793 51.1972 29.7902C51.1972 34.101 50.8414 38.9769 50.1299 44.4178C47.6187 63.5447 43.9566 77.9421 39.1435 87.6102H75.4301C75.179 93.7207 74.8023 99.4127 74.3001 104.686C74.0908 106.779 73.7351 109.081 73.2328 111.592C72.7724 114.061 71.747 116.531 70.1566 119H92.4434C92.0248 117.996 91.6691 117.054 91.3761 116.175C89.995 112.031 89.116 102.719 88.7394 88.238C91.7947 88.4891 94.9964 89.075 98.3446 89.9958L100.919 90.7492V77.5655C97.11 79.3233 93.0084 80.3278 88.6138 80.5789V77.9421C88.6138 69.5715 88.9278 61.7241 89.5556 54.3998C89.8903 50.5074 90.288 47.222 90.7483 44.5434L91.1878 41.7811H73.9234C75.179 47.8079 75.8068 54.7346 75.8068 62.5611Z"/>
</svg>
