<svg viewBox="0 0 147 147" fill="rgba(4, 11, 94, 0.4)" xmlns="http://www.w3.org/2000/svg">
<path fill-rule="evenodd" clip-rule="evenodd" d="M134.068 13.5233C117.568 -2.97658 33.5679 -5.97668 14.0681 13.5233C-5.43174 33.0233 -3.93199 115.523 14.0681 133.523C32.0681 151.523 117.568 150.024 134.068 133.523C150.568 117.023 150.568 30.0232 134.068 13.5233ZM74.2642 53.9424C69.9115 53.9424 65.9564 54.5702 62.3989 55.8258C62.3989 55.0306 62.378 54.2982 62.3361 53.6285V51.3057V44.651C62.3361 40.0891 63.0895 37.1175 64.5962 35.7363C65.517 34.8993 67.8607 34.4808 71.6275 34.4808H74.8293C81.1909 34.4808 85.9831 35.82 89.2058 38.4986C92.0518 40.8424 94.7514 45.3626 97.3044 52.0591L98.2461 50.0501C98.6228 49.2967 98.9785 48.3969 99.3133 47.3506C99.69 46.3042 100.004 45.1114 100.255 43.7721C100.506 42.391 100.632 40.8424 100.632 39.1264C100.632 37.4105 100.506 35.82 100.255 34.3552C99.5017 29.4165 97.7439 26.9472 94.9815 26.9472H49.0269C49.6128 28.0354 50.1151 29.1026 50.5336 30.149C51.6217 33.0787 52.1659 37.4942 52.1659 43.3955V64.615C57.2301 62.9408 61.5828 62.1038 65.224 62.1038C68.9071 62.1038 71.9205 62.6479 74.2642 63.7361C80.6259 66.6658 83.8068 72.2741 83.8068 80.561C83.8068 91.108 80.4585 100.023 73.762 107.305C67.2329 114.42 59.3646 117.978 50.1569 117.978C50.1987 118.564 50.3662 119.191 50.6591 119.861C51.6217 122.414 53.0238 123.879 54.8654 124.256C62.2315 124.256 69.4512 121.996 76.5243 117.475C83.3464 113.165 88.871 107.473 93.0982 100.399C97.5346 93.0751 99.7528 85.5206 99.7528 77.7359C99.7528 70.6209 97.7229 64.9916 93.6632 60.8482C91.5705 58.7137 88.9129 57.0396 85.6901 55.8258C82.4675 54.5702 78.6588 53.9424 74.2642 53.9424Z"/>
</svg>
