<svg viewBox="0 0 147 147" fill="rgba(4, 11, 94, 0.4)" xmlns="http://www.w3.org/2000/svg">
<path fill-rule="evenodd" clip-rule="evenodd" d="M134.068 13.5233C117.568 -2.97658 33.5679 -5.97668 14.0681 13.5233C-5.43174 33.0233 -3.93199 115.523 14.0681 133.523C32.0681 151.523 117.568 150.024 134.068 133.523C150.568 117.023 150.568 30.0232 134.068 13.5233ZM73.9189 52.4536C70.6544 52.4536 67.892 52.7675 65.632 53.3953C68.4362 46.5314 72.2238 40.8185 76.9951 36.2565C82.5615 30.983 88.3792 28.2207 94.4478 27.9696C94.406 27.2999 94.2595 26.6303 94.0084 25.9606C93.0039 23.5332 91.5809 22.0683 89.7393 21.566C83.3358 21.3986 76.5766 23.7215 69.4616 28.5346C61.7187 33.8081 55.4408 40.7766 50.6276 49.4402C45.103 59.4431 42.3408 70.4714 42.3408 82.5251C42.3408 94.7043 44.9356 104.142 50.1254 110.839C54.9804 117.117 61.4676 120.256 69.5871 120.256C78.4181 120.256 85.6378 116.593 91.2461 109.269C96.6451 102.28 99.3446 93.8045 99.3446 83.8434C99.3446 73.5476 96.9381 65.721 92.125 60.3638C89.8231 57.7271 87.0189 55.76 83.7125 54.4626C80.448 53.1233 77.1834 52.4536 73.9189 52.4536ZM71.2194 113.978C62.765 113.978 58.5379 103.807 58.5379 83.4667C58.5379 75.3891 59.5633 69.4669 61.6141 65.7001C63.6649 61.8915 66.8667 59.9872 71.2194 59.9872C73.2702 59.9872 75.0489 60.6568 76.5556 61.9961C81.034 65.9722 83.2731 72.9198 83.2731 82.8389C83.2731 91.6281 82.3732 98.785 80.5736 104.31C78.4809 110.755 75.3628 113.978 71.2194 113.978Z" />
</svg>
