<svg viewBox="0 0 147 147" fill="rgba(4, 11, 94, 0.4)" xmlns="http://www.w3.org/2000/svg">
<path fill-rule="evenodd" clip-rule="evenodd" d="M134.068 13.5233C117.568 -2.97658 33.5679 -5.97668 14.0681 13.5233C-5.43174 33.0233 -3.93199 115.523 14.0681 133.523C32.0681 151.523 117.568 150.024 134.068 133.523C150.568 117.023 150.568 30.0232 134.068 13.5233ZM79.7305 116.157C79.7305 114.399 79.8352 111.951 80.0445 108.812C80.2537 105.673 81.321 99.0182 83.2462 88.8479C87.4734 66.2891 91.575 50.2594 95.551 40.7587L99.255 32.2207C100.218 30.0443 101.243 28.2865 102.331 26.9472H52.6726C49.1569 26.9472 47.3991 31.4045 47.3991 40.3193C47.3991 46.9739 48.5291 52.5613 50.7891 57.0814C51.8355 51.0546 53.97 45.8439 57.1927 41.4493C60.9176 36.3851 65.1448 33.8529 69.8742 33.8529H73.1387C76.3195 33.8529 78.747 34.4808 80.4212 35.7363C81.3001 36.406 81.9279 37.2221 82.3045 38.1848C82.6812 39.1474 82.7649 40.1309 82.5556 41.1354C82.3883 42.098 81.9697 43.6675 81.3001 45.8439L74.8966 66.2472C73.348 71.1022 70.6694 80.2262 66.8607 93.6191C65.4378 98.7671 63.9101 104.668 62.2779 111.323C60.6874 117.936 59.3063 121.828 58.1344 123H80.7978C80.0863 120.154 79.7305 117.873 79.7305 116.157Z"/>
</svg>
