<svg viewBox="0 0 147 147" fill="rgba(4, 11, 94, 0.4)" xmlns="http://www.w3.org/2000/svg">
<path fill-rule="evenodd" clip-rule="evenodd" d="M134.068 13.5233C117.568 -2.97656 33.5679 -5.97669 14.0681 13.5233C-5.43174 33.0233 -3.93199 115.523 14.0681 133.523C32.0681 151.523 117.568 150.023 134.068 133.523C150.568 117.023 150.568 30.0233 134.068 13.5233ZM73.605 120.256C77.1207 120.256 80.2806 119.711 83.0847 118.623C88.6093 116.405 92.9621 112.638 96.1429 107.323C100.663 99.7476 102.923 90.8538 102.923 80.6417C102.923 73.2336 101.458 67.437 98.5285 63.2517C95.8917 59.4849 91.8529 56.9319 86.4121 55.5926C90.7648 54.0022 94.0503 51.5538 96.2685 48.2474C97.2729 46.7407 98.0053 45.1712 98.4657 43.5389C98.9261 41.8648 99.1563 39.8349 99.1563 37.4493C99.1563 35.0637 98.4239 32.7827 96.959 30.6063C92.8992 24.6631 85.1355 21.6916 73.6678 21.6916C66.5528 21.6916 60.7352 22.9472 56.215 25.4584C53.7876 26.7558 51.8414 28.4927 50.3765 30.6691C48.9117 32.8036 48.1793 35.5868 48.1793 39.0188C48.1793 42.4089 49.1419 45.5269 51.0671 48.3729C53.369 51.7212 56.7173 54.1696 61.1118 55.7181C55.6291 57.183 51.5275 59.8407 48.8071 63.6912C47.3841 65.7001 46.2959 68.1067 45.5425 70.9108C44.7891 73.715 44.4125 77.6492 44.4125 82.7134C44.4125 87.7776 45.3751 93.2185 47.3004 99.0361C48.3048 101.966 49.5813 104.728 51.1299 107.323C52.7203 109.918 54.5828 112.178 56.7173 114.103C58.8936 115.987 61.3839 117.493 64.1881 118.623C66.9922 119.711 70.1312 120.256 73.605 120.256ZM63.6231 66.014C66.0506 61.5357 69.3988 59.2966 73.6678 59.2966C77.9368 59.2966 81.2851 61.5357 83.7125 66.014C85.8889 70.1156 86.9771 75.0961 86.9771 80.9556C86.9771 90.9584 85.8889 98.8268 83.7125 104.561C81.3687 110.839 78.0205 113.978 73.6678 113.978C69.3151 113.978 65.9668 110.839 63.6231 104.561C62.493 101.631 61.656 98.1572 61.1118 94.1393C60.6096 90.1214 60.3585 85.4548 60.3585 80.1394C60.3585 74.8241 61.4467 70.1156 63.6231 66.014ZM65.632 31.6108C67.348 29.1833 70.0266 27.9695 73.6678 27.9695C77.309 27.9695 79.9876 29.1833 81.7036 31.6108C82.4988 32.6571 83.0429 33.829 83.3358 35.1265C83.6707 36.382 83.8381 38.0771 83.8381 40.2116C83.8381 42.3461 83.001 44.7526 81.3269 47.4312C79.3598 50.4865 76.8068 52.0142 73.6678 52.0142C70.5288 52.0142 67.9758 50.4865 66.0087 47.4312C65.1716 46.0919 64.5438 44.6689 64.1253 43.1622C63.7067 41.6136 63.4975 39.793 63.4975 37.7004C63.4975 35.5659 64.209 33.536 65.632 31.6108Z"/>
</svg>
