<svg viewBox="0 0 147 147" fill="rgba(4, 11, 94, 0.4)" xmlns="http://www.w3.org/2000/svg">
<path fill-rule="evenodd" clip-rule="evenodd" d="M134.068 13.5233C117.568 -2.97656 33.5679 -5.97669 14.0681 13.5233C-5.43174 33.0233 -3.93199 115.523 14.0681 133.523C32.0681 151.523 117.568 150.023 134.068 133.523C150.568 117.023 150.568 30.0233 134.068 13.5233ZM72.5737 74.0319C78.7261 74.0319 83.5811 72.0648 87.1386 68.1306C87.1386 71.9811 86.741 75.7897 85.9458 79.5565C83.5601 91.3172 78.6005 100.943 71.067 108.435C65.9609 113.499 60.4572 116.68 54.5559 117.978C54.3048 119.108 54.8698 120.573 56.251 122.372C57.0044 123.377 58.0088 124.004 59.2644 124.256C65.1239 124.256 71.4646 121.514 78.2866 116.031C85.4854 110.256 91.3448 102.785 95.8649 93.6191C100.971 83.114 103.524 71.9602 103.524 60.1576C103.524 48.6899 101.264 40.089 96.7439 34.3552C92.2237 28.5795 85.1924 25.6916 75.6499 25.6916C67.7815 25.6916 61.3361 27.7842 56.3138 31.9695C51.0403 36.406 48.4035 42.2236 48.4035 49.4223C48.4035 55.8258 50.3497 61.3504 54.242 65.9961C58.6785 71.3533 64.789 74.0319 72.5737 74.0319ZM75.0221 31.9695C76.9473 31.9695 78.5796 32.3672 79.9189 33.1624C84.0623 35.6317 86.1341 40.5494 86.1341 47.9156C86.1341 53.9424 85.1087 58.4626 83.0579 61.4759C82.0953 62.8153 80.9862 63.7779 79.7305 64.3638C78.5168 64.9498 77.052 65.2427 75.336 65.2427C73.62 65.2427 71.9668 64.8033 70.3764 63.9244C65.647 61.2458 63.2823 55.9095 63.2823 47.9156C63.2823 43.2699 64.2658 39.5031 66.2329 36.6152C67.1956 35.1923 68.4303 34.0622 69.937 33.2252C71.4437 32.3881 73.1387 31.9695 75.0221 31.9695Z" />
</svg>
